<svg viewBox="0 0 100 120">
<!-- <svg viewBox="-25 25 180 155"> -->
    <defs></defs>
    <g featurekey="symbolContainer" transform="matrix(1,0,0,1,0,0)" fill="#ffffff"><rect xmlns="http://www.w3.org/2000/svg" width="118" height="113" rx="10" ry="10"></rect></g><g id="SvgjsG2895" featurekey="uHI19F-0" transform="matrix(0.13814757791356924,0,0,0.13814757791356924,17.800167115078953,15.841759169580417)" fill="#303841"><metadata xmlns="http://www.w3.org/2000/svg">Created by potrace 1.14, written by Peter Selinger 2001-2017</metadata><g xmlns="http://www.w3.org/2000/svg" transform="translate(0.000000,600.000000) scale(0.100000,-0.100000)" fill="#303841" stroke="none"><path d="M3823 5689 c-157 -20 -367 -116 -546 -249 -133 -99 -333 -292 -440 -425 -141 -175 -270 -385 -348 -564 l-36 -84 34 -96 c72 -201 117 -414 132 -623 4 -69 11 -131 15 -137 5 -7 41 -11 95 -11 101 0 206 24 319 72 l76 33 2 70 c6 192 135 340 391 450 74 32 185 65 265 79 42 8 81 52 183 211 400 620 402 1210 4 1275 -35 5 -68 9 -74 9 -5 -1 -38 -5 -72 -10z"></path><path d="M1325 5338 c-118 -44 -207 -165 -257 -349 -21 -76 -23 -106 -23 -299 0 -182 4 -232 23 -326 65 -325 166 -591 321 -852 105 -176 168 -255 211 -263 279 -56 495 -124 675 -214 l127 -62 39 59 c61 96 96 208 114 364 l7 62 -47 23 c-57 29 -125 100 -159 168 -46 89 -59 169 -52 321 5 134 13 177 56 322 l22 76 -45 101 c-100 222 -235 431 -382 588 -105 113 -192 180 -313 241 -90 45 -98 46 -190 49 -54 1 -110 -2 -127 -9z"></path><path d="M3953 4166 l-92 -11 -64 -75 c-144 -168 -335 -338 -499 -444 -56 -36 -88 -64 -88 -75 0 -25 66 -130 122 -195 26 -30 84 -82 128 -115 l81 -61 37 25 c58 38 121 57 197 57 179 2 351 -86 543 -278 l102 -103 111 -12 c144 -15 485 -6 602 15 143 27 256 63 367 118 132 64 234 160 269 252 105 282 -205 604 -758 786 -334 110 -741 155 -1058 116z"></path><path d="M995 3210 c-409 -35 -713 -176 -806 -374 -145 -307 253 -682 907 -852 254 -66 564 -95 809 -76 85 7 161 15 169 18 8 3 58 54 110 114 145 165 330 323 496 426 33 20 60 42 60 49 0 6 -14 40 -31 74 -36 72 -164 208 -247 263 l-53 36 -71 -37 c-69 -35 -74 -36 -182 -36 -105 0 -115 2 -192 36 -119 52 -217 122 -332 237 l-104 103 -71 8 c-116 15 -354 20 -462 11z"></path><path d="M3519 3068 c-63 -85 -110 -229 -124 -376 l-7 -67 46 -24 c57 -30 126 -103 160 -169 75 -149 75 -369 -1 -625 l-26 -87 29 -72 c16 -39 59 -128 96 -196 192 -351 431 -600 670 -694 78 -32 225 -32 289 0 103 51 187 173 230 337 30 113 37 357 15 520 -39 298 -147 617 -302 897 -55 98 -105 175 -198 301 -9 11 -41 22 -92 32 -238 42 -449 111 -644 210 l-110 55 -31 -42z"></path><path d="M3135 2580 c-68 -10 -156 -36 -241 -72 l-72 -30 -4 -86 c-3 -68 -10 -98 -30 -138 -94 -181 -310 -314 -609 -374 -55 -11 -57 -13 -111 -88 -428 -600 -513 -1211 -191 -1369 46 -22 74 -28 147 -31 265 -12 586 157 901 472 176 176 305 343 425 551 58 100 140 276 140 301 0 9 -14 55 -31 102 -71 200 -118 433 -134 663 l-7 97 -45 6 c-52 7 -68 6 -138 -4z"></path></g></g><g id="SvgjsG2896" featurekey="8FbbNb-0" transform="matrix(4.455355630450988,0,0,4.455355630450988,133.99018030437796,1.2578640135241876)" fill="#ffffff"><path d="M5.16 10.28 c1.2 0 2.15 0.27328 2.85 0.81994 s1.07 1.3067 1.11 2.28 l0 5.08 c0 0.48 0.02666 0.99334 0.08 1.54 l-1.6 0 c-0.04 -0.42666 -0.06 -0.90666 -0.06 -1.44 l-0.04 0 c-0.41334 0.61334 -0.89 1.0467 -1.43 1.3 s-1.17 0.38 -1.89 0.38 c-0.97334 0 -1.7633 -0.26 -2.37 -0.78 s-0.91 -1.2067 -0.91 -2.06 c0 -1.08 0.45334 -1.8967 1.36 -2.45 s2.1866 -0.83 3.84 -0.83 l1.34 0 l0 -0.34 c0 -0.64 -0.21 -1.1433 -0.63 -1.51 s-0.97 -0.55 -1.65 -0.55 c-0.50666 0 -0.95 0.07666 -1.33 0.23 s-0.83 0.43668 -1.35 0.85002 l-1.08 -1.12 c1.0267 -0.90666 2.28 -1.3733 3.76 -1.4 z M2.7 17.259999999999998 c0 1.0267 0.68002 1.54 2.04 1.54 c0.81334 0 1.4633 -0.24334 1.95 -0.73 s0.73666 -1.19 0.75 -2.11 l0 -0.52 l-1.02 0 c-1.1733 0 -2.0866 0.15 -2.74 0.45 s-0.98 0.75666 -0.98 1.37 z M13.3 10.52 l2.3 3.36 l2.26 -3.36 l2.18 0 l-3.24 4.42 l3.84 5.06 l-2.32 0 l-2.8 -3.98 l-2.8 3.98 l-2.22 0 l3.84 -5.06 l-3.36 -4.42 l2.32 0 z M23.16 5.800000000000001 c0.36 0 0.67002 0.13002 0.93002 0.39002 s0.39 0.57 0.39 0.93 c0 0.37334 -0.13334 0.68668 -0.4 0.94002 s-0.57332 0.38 -0.91998 0.38 c-0.37334 0 -0.68668 -0.12666 -0.94002 -0.38 s-0.38 -0.56668 -0.38 -0.94002 s0.13334 -0.68668 0.4 -0.94002 s0.57332 -0.38 0.91998 -0.38 z M24.060000000000002 10.52 l0 9.48 l-1.8 0 l0 -9.48 l1.8 0 z M28.860000000000003 4.880000000000001 l0 15.12 l-1.8 0 l0 -15.12 l1.8 0 z M36.300000000000004 10.28 c1.4 0 2.5866 0.48338 3.56 1.45 s1.4667 2.1434 1.48 3.53 c0 1.4 -0.48666 2.5734 -1.46 3.52 s-2.1666 1.4333 -3.58 1.46 c-1.3867 0 -2.5666 -0.48 -3.54 -1.44 s-1.4733 -2.14 -1.5 -3.54 c0 -1.3733 0.48334 -2.54 1.45 -3.5 s2.1634 -1.4533 3.59 -1.48 z M33.18 15.26 c0 0.97334 0.28664 1.7633 0.85998 2.37 s1.3267 0.91666 2.26 0.93 c0.94666 0 1.7 -0.30334 2.26 -0.91 s0.84666 -1.4033 0.86 -2.39 c0 -0.97334 -0.28 -1.7633 -0.84 -2.37 s-1.3267 -0.91666 -2.3 -0.93 c-0.94666 0 -1.7 0.31334 -2.26 0.94 s-0.84 1.4133 -0.84 2.36 z M48.1 10.3 c1.5067 0 2.72 0.5 3.64 1.5 l-1.36 1.24 c-0.65334 -0.70666 -1.44 -1.06 -2.36 -1.06 c-0.88 0 -1.5933 0.31334 -2.14 0.94 s-0.82 1.4333 -0.82 2.42 c0 0.93334 0.28666 1.7 0.86 2.3 s1.3067 0.90666 2.2 0.92 c0.94666 0 1.7133 -0.35334 2.3 -1.06 l1.28 1.28 c-0.85334 0.97334 -2.0534 1.46 -3.6 1.46 c-1.4533 0 -2.6366 -0.45334 -3.55 -1.36 s-1.3833 -2.1 -1.41 -3.58 c0.01334 -1.5067 0.48334 -2.7134 1.41 -3.62 s2.11 -1.3667 3.55 -1.38 z M55.040000000000006 4.880000000000001 l0 9.76 l4.1 -4.12 l2.5 0 l-4.44 4.32 l4.8 5.16 l-2.56 0 l-4.4 -4.92 l0 4.92 l-1.8 0 l0 -15.12 l1.8 0 z"></path></g>
    <!-- <g id="SvgjsG13306" featurekey="uHI19F-0" transform="matrix(0.14058096042899942,0,0,0.14058096042899942,-32.634140158805685,-61.023686264011445)" fill="#59636e"><g xmlns="http://www.w3.org/2000/svg"><g style="" fill="#59636e" fill-opacity="1.0" stroke-linejoin=" miter"><path d="M586.6152,573.353L687.0283,886.18915L595.90497,915.51807Q595.4408,915.8285,595.1751,915.4293L494.96356,603.2213L586.5871,573.362 M487.01553,594.8197Q482.64813,596.66693,483.88077,601.41345L587.11676,923.0442Q588.93555,928.0344,593.90594,926.6623L695.06494,894.1881Q698.06946,893.05664,698.3416,889.4321L594.67975,565.7574Q593.1468,561.5449,588.63226,562.2139L487.06912,594.8025"></path></g><g style="" fill="#59636e" fill-opacity="1.0" stroke-linejoin=" miter"><path d="M835.7998,771.04645L615.0823,1014.42487L544.12103,950.17413Q543.6201,949.9273,543.83295,949.4976L764.10724,706.6079L835.77795,771.02655 M767.40924,695.5239Q763.6258,692.6652,760.13153,696.106L533.2091,946.32635Q529.7969,950.3966,533.47034,954.015L612.17334,1025.3843Q614.6554,1027.4204,617.9304,1025.844L846.41003,774.2327Q849.2917,770.7989,846.4551,767.2237L767.451,695.5617"></path></g><g style="" fill="#59636e" fill-opacity="1.0" stroke-linejoin=" miter"><path d="M789.18463,1085.6934L468.05408,1016.2356L488.21606,922.65607Q488.17932,922.0989,488.65796,922.06836L809.14374,991.3866L789.1909,1085.6646 M820.39374,988.7042Q820.9777,983.99835,816.2508,982.6926L486.0924,911.28217Q480.86133,910.3622,479.56445,915.3528L457.1084,1019.1961Q456.58606,1022.36383,459.58887,1024.4117L791.73035,1096.4753Q796.1449,1097.254,797.8228,1093.0098L820.38184,988.7593"></path></g><g style="" fill="#59636e" fill-opacity="1.0" stroke-linejoin=" miter"><path d="M493.38483,1202.647L392.97168,889.81085L484.09503,860.48193Q484.5592,860.1715,484.8249,860.5707L585.03644,1172.7787L493.4129,1202.638 M592.9845,1181.1803Q597.35187,1179.333,596.11926,1174.5865L492.88324,852.9558Q491.06445,847.9656,486.09406,849.3377L384.93506,881.8119Q381.93054,882.94336,381.6584,886.5679L485.32025,1210.2427Q486.8532,1214.4551,491.36774,1213.7861L592.9309,1181.1975"></path></g><g style="" fill="#59636e" fill-opacity="1.0" stroke-linejoin=" miter"><path d="M290.81525,690.3065L611.94586,759.7643L591.7839,853.3439Q591.8206,853.9011,591.342,853.93164L270.8562,784.61334L290.80902,690.3353 M259.6062,787.2957Q259.02222,792.0016,263.74915,793.3074L593.90753,864.7178Q599.1386,865.63776,600.4355,860.6472L622.89154,756.80383Q623.4139,753.6361,620.4111,751.58813L288.2696,679.5246Q283.85498,678.746,282.17706,682.9902L259.61804,787.2407"></path></g><g style="" fill="#59636e" fill-opacity="1.0" stroke-linejoin=" miter"><path d="M244.20013,1004.9535L464.91757,761.5751L535.87885,825.82574Q536.37976,826.0725,536.16693,826.5022L315.89264,1069.392L244.22195,1004.9733 M312.59064,1080.476Q316.37408,1083.3347,319.86835,1079.8939L546.7908,829.6735Q550.203,825.6033,546.52954,821.98486L467.82657,750.6156Q465.34445,748.57947,462.06946,750.156L233.58984,1001.7672Q230.70822,1005.20105,233.54486,1008.77625L312.54895,1080.4382"></path></g></g></g> -->
    <!-- <g id="SvgjsG4710" featurekey="uHI19F-0" transform="matrix(1.7039199721455736,0,0,1.7039199721455736,-21.916431964774993,11.480400139272133)" fill="#59636e"><polygon xmlns="http://www.w3.org/2000/svg" points="75.4,51.5 75.4,12.8 64.2,45.8 "></polygon><polygon xmlns="http://www.w3.org/2000/svg" points="75.4,73.6 75.4,54.9 52,73.6 "></polygon><polygon xmlns="http://www.w3.org/2000/svg" points="24.6,51.5 35.8,45.8 24.6,12.8 "></polygon><polygon xmlns="http://www.w3.org/2000/svg" points="24.6,73.6 46.9,73.6 24.6,54.9 "></polygon><polygon xmlns="http://www.w3.org/2000/svg" points="50,68.4 59.7,61.6 49.8,5 40.6,61.2 "></polygon><polygon xmlns="http://www.w3.org/2000/svg" points="39.5,78.5 50,95 60.5,78.5 "></polygon></g> -->
</svg>